<?xml version="1.0" encoding="UTF-8"?>
<svg id="Layer_1" data-name="Layer 1" xmlns="http://www.w3.org/2000/svg" viewBox="0 0 421.94 155.15">
  <defs>
    <style>
      .cls-1, .cls-2 {
        fill: #fff;
      }

      .cls-2 {
        fill-rule: evenodd;
      }
    </style>
  </defs>
  <g>
    <g>
      <g>
        <path class="cls-2" d="m274.21,43.83c2.04.73,4.1,1.38,6.17,1.96-1.16.81-1.99,2.57-2.67,4.13-1.59,3.62-1.36,2.44-2.82,4.48-.63-.2-7.12-6.47-20.89-7.98-4.88-.53-7.63.25-8.83.15-.98-9.54-6.42-14.92-12.53-20.59.58-2.04,2.47-3.72,3.47-5.54.93-1.66.91-3.37.3-5.06,2.24,3.25,4.73,6.29,7.47,9.14,4.2,4.35,8.99,8.1,14.04,11.4,5.16,3.17,10.6,5.89,16.28,7.9Z"/>
        <path class="cls-2" d="m291.7,48.14h-.02c-.35-.1-.71-.2-1.06-.3-5.41-1.48-10.75-3.22-15.88-5.36-5.49-2.27-10.82-4.91-15.78-8.13-5.06-3.1-9.71-6.8-14.04-10.85-3.8-3.55-7.27-7.47-10.44-11.65-.45-.55-.88-1.13-1.31-1.71,0-.03-.03-.03-.03-.05-2.21-2.64-4.71-5.01-5.44-6.8h.6c.63.35,2.34.65,3.07.81,14.22,2.97,29.02,4.08,40.69,13.31,8.83,7,16.64,17.79,22.93,27.43.55.83.98,1.36,1.54,2.06,3.17,3.9-1.06,2.37-4.83,1.23Z"/>
      </g>
      <path class="cls-2" d="m302.81,59.59c0,5.4.85,6.61.22,12.02-.58-.46-.77-1-1.16-1.7l-2.68-5.28c-.86-1.57-3.69-4.52-6.34-4.16,1.06,2.85,5.79,8.38,5.47,14.09l-.29,2.56c-8.69-1.25-5.37-11.97-13.02-12.31,0,2.44,4.21,9.19,4.21,21.69,0,2.13-1.27,2.87,2.9,4.72,1.41.63,4.79,1.92,6.45,1.41l4.22-6.06c10.48-14.64,4.87-15.67,5.09-24.7.04-1.68.2-4.59-1.56-5.31-1.25.57-1.07,1.65-1.04,3.42.06,3.17.84,11.58-1.1,13.6-.48.5-.55.26-.63.23-.42-1.46.73-.16,1.05-4.36.32-4.19.15-6.41.16-10.23,0-1.44,1.12-3.41-.91-3.76-.84,1.05-1.03,2.31-1.03,4.14Z"/>
      <g>
        <polygon class="cls-2" points="132.54 81.18 137.33 79.77 137.46 74.78 140.29 78.9 145.08 77.49 142.03 81.44 144.86 85.56 140.15 83.89 137.11 87.85 137.24 82.86 132.54 81.18"/>
        <polygon class="cls-2" points="135.83 51.23 142.77 52.91 146.51 46.83 147.06 53.94 153.99 55.62 147.4 58.34 147.95 65.45 143.32 60.02 136.73 62.74 140.46 56.67 135.83 51.23"/>
        <polygon class="cls-2" points="159.51 22.17 166.89 29.19 175.86 24.34 171.46 33.53 178.84 40.56 168.74 39.22 164.34 48.41 162.49 38.39 152.39 37.04 161.35 32.19 159.51 22.17"/>
        <polygon class="cls-2" points="203.81 0 207.92 13.97 222.48 14.36 210.47 22.6 214.59 36.56 203.05 27.69 191.04 35.92 195.91 22.2 184.37 13.32 198.93 13.72 203.81 0"/>
      </g>
    </g>
    <g>
      <g>
        <path class="cls-1" d="m36.95,122.22v1.3c-.14,11.57-5.75,17.9-18.33,17.9-13.3,0-18.62-6.97-18.62-19.62v-17.11c0-12.79,5.39-19.77,18.62-19.77,12.29,0,18.26,6.25,18.26,17.9v.79h-10.64v-1.01c0-5.68-2.59-8.34-7.62-8.34-6.54,0-8.2,3.74-8.2,10.78v16.32c0,7.05,1.51,10.71,8.2,10.71,5.32,0,7.55-2.52,7.76-8.41v-1.44h10.57Z"/>
        <path class="cls-1" d="m73.62,113.45v11c0,11.93-5.18,16.97-16.39,16.97s-16.39-5.03-16.39-16.97v-11c0-11.86,5.18-16.97,16.39-16.97s16.39,5.1,16.39,16.97Zm-23.08,11.07c0,6.47,1.73,8.41,6.69,8.41s6.69-1.94,6.69-8.41v-11.14c0-6.47-1.73-8.34-6.69-8.34s-6.69,1.87-6.69,8.34v11.14Z"/>
        <path class="cls-1" d="m94.54,140.99c-12.51,1.29-15.53-3.74-15.53-15.82v-40.11h9.63v40.54c0,5.89,1.51,6.97,5.89,6.76v8.63Z"/>
        <path class="cls-1" d="m116.11,140.99c-12.51,1.29-15.53-3.74-15.53-15.82v-40.11h9.63v40.54c0,5.89,1.51,6.97,5.89,6.76v8.63Z"/>
        <path class="cls-1" d="m152.7,127.62c-.29,8.99-4.6,13.8-15.67,13.8s-16.46-5.03-16.46-16.97v-11.36c0-10.71,5.32-16.61,16.39-16.61s16.1,5.1,16.1,16.46v8.91h-23v3.59c0,5.32,1.94,7.98,6.9,7.98s6.54-2.08,6.76-5.82h8.99Zm-22.64-14.45v1.29h13.8v-1.58c0-5.68-1.87-8.34-6.83-8.34s-6.97,2.44-6.97,8.63Z"/>
        <path class="cls-1" d="m180.31,138.97v-2.88c-2.23,1.94-5.54,2.95-9.2,2.95-9.27,0-13.87-5.9-13.87-16.97v-9.13c0-11.43,6.33-16.46,14.16-16.46,4.17,0,7.05,1.15,8.99,3.02l.29-2.16h9.27v40.76c0,12.58-6.18,17.04-16.46,17.04-11.21,0-15.17-4.96-15.38-13.08h9.27c.22,3.31,1.8,5.25,6.4,5.25s6.54-2.23,6.54-8.34Zm0-26.31c0-5.68-2.8-7.62-6.69-7.62-4.17,0-6.69,2.16-6.69,8.34v8.84c0,5.82,1.94,8.34,6.61,8.34,4.31,0,6.76-2.16,6.76-7.19v-10.71Z"/>
        <path class="cls-1" d="m227.61,127.62c-.29,8.99-4.6,13.8-15.67,13.8s-16.46-5.03-16.46-16.97v-11.36c0-10.71,5.32-16.61,16.39-16.61s16.1,5.1,16.1,16.46v8.91h-23v3.59c0,5.32,1.94,7.98,6.9,7.98s6.54-2.08,6.76-5.82h8.99Zm-22.64-14.45v1.29h13.8v-1.58c0-5.68-1.87-8.34-6.83-8.34s-6.97,2.44-6.97,8.63Z"/>
      </g>
      <g>
        <path class="cls-1" d="m233.37,85.78h15.96c14.16,0,19.84,6.69,19.84,20.2v14.67c0,13.23-5.75,19.91-19.84,19.91h-15.96v-54.78Zm9.78,8.77v37.24h6.25c7.12,0,9.35-3.24,9.35-10.5v-16.03c0-7.55-2.23-10.71-9.35-10.71h-6.25Z"/>
        <path class="cls-1" d="m306.48,127.62c-.29,8.99-4.6,13.8-15.67,13.8s-16.46-5.03-16.46-16.97v-11.36c0-10.71,5.32-16.61,16.39-16.61s16.1,5.1,16.1,16.46v8.91h-23v3.59c0,5.32,1.94,7.98,6.9,7.98s6.54-2.08,6.76-5.82h8.99Zm-22.64-14.45v1.29h13.8v-1.58c0-5.68-1.87-8.34-6.83-8.34s-6.97,2.44-6.97,8.63Z"/>
        <path class="cls-1" d="m332.8,117.05l16.03,23.51h-11.93l-11.93-18.76h-3.38v18.76h-9.63v-55.5h9.7v28.25h3.16l10.93-15.96h11.5l-14.45,19.7Z"/>
        <path class="cls-1" d="m361.34,99.51c2.23-2.01,5.46-3.02,9.56-3.02,9.35,0,13.16,5.1,13.16,15.6v28.47h-9.7v-27.46c0-5.68-1.58-8.05-6.4-8.05-4.1,0-6.61,2.23-6.61,7.26v28.25h-9.7v-55.5h9.7v14.45Z"/>
        <path class="cls-1" d="m421.94,113.45v11c0,11.93-5.18,16.97-16.39,16.97s-16.39-5.03-16.39-16.97v-11c0-11.86,5.18-16.97,16.39-16.97s16.39,5.1,16.39,16.97Zm-23.08,11.07c0,6.47,1.73,8.41,6.69,8.41s6.69-1.94,6.69-8.41v-11.14c0-6.47-1.73-8.34-6.69-8.34s-6.69,1.87-6.69,8.34v11.14Z"/>
      </g>
    </g>
  </g>
  <g>
    <polygon class="cls-1" points="290.95 55.62 289.47 55.62 289.47 48.45 290.95 48.66 290.95 55.62"/>
    <rect class="cls-1" x="288.73" y="53.88" width="2.96" height="4.73"/>
  </g>
</svg>