<?xml version="1.0" encoding="UTF-8"?>
<svg id="Layer_1" data-name="Layer 1" xmlns="http://www.w3.org/2000/svg" viewBox="0 0 468.03 172.1">
  <defs>
    <style>
      .cls-1 {
        fill: #f36d21;
      }

      .cls-2, .cls-3 {
        fill: #1f429b;
      }

      .cls-3 {
        fill-rule: evenodd;
      }
    </style>
  </defs>
  <g>
    <g>
      <g>
        <path class="cls-3" d="m304.17,48.62c2.26.81,4.55,1.54,6.84,2.18-1.28.89-2.21,2.85-2.96,4.58-1.76,4.02-1.51,2.71-3.13,4.97-.7-.22-7.9-7.17-23.17-8.85-5.42-.59-8.46.28-9.8.17-1.09-10.58-7.12-16.55-13.9-22.84.64-2.26,2.74-4.13,3.85-6.14,1.03-1.84,1-3.74.34-5.61,2.48,3.6,5.25,6.98,8.29,10.13,4.66,4.83,9.97,8.99,15.58,12.65,5.72,3.52,11.75,6.53,18.06,8.77Z"/>
        <path class="cls-3" d="m323.57,53.39h-.03c-.39-.11-.78-.22-1.17-.33-6-1.65-11.92-3.57-17.62-5.95-6.09-2.51-12-5.44-17.5-9.02-5.61-3.43-10.78-7.54-15.58-12.03-4.22-3.94-8.07-8.29-11.58-12.93-.5-.61-.98-1.26-1.45-1.9,0-.03-.03-.03-.03-.06-2.46-2.93-5.22-5.56-6.03-7.54h.67c.7.39,2.6.73,3.41.89,15.77,3.29,32.19,4.52,45.14,14.77,9.8,7.76,18.45,19.74,25.43,30.43.61.92,1.09,1.51,1.7,2.29,3.52,4.33-1.17,2.62-5.36,1.37Z"/>
      </g>
      <path class="cls-3" d="m335.88,66.1c0,5.99.95,7.33.24,13.33-.64-.51-.85-1.11-1.29-1.88l-2.98-5.85c-.95-1.74-4.09-5.02-7.04-4.62,1.17,3.16,6.42,9.3,6.07,15.62l-.32,2.84c-9.64-1.39-5.95-13.27-14.44-13.66,0,2.7,4.67,10.19,4.67,24.05,0,2.37-1.41,3.18,3.22,5.24,1.56.69,5.31,2.13,7.15,1.56l4.68-6.72c11.63-16.24,5.4-17.38,5.64-27.39.04-1.86.22-5.09-1.73-5.89-1.38.64-1.19,1.84-1.15,3.79.06,3.52.93,12.85-1.22,15.08-.53.55-.61.29-.7.25-.47-1.62.81-.17,1.17-4.83.35-4.64.17-7.11.17-11.34,0-1.59,1.25-3.79-1.01-4.17-.94,1.17-1.14,2.57-1.14,4.59Z"/>
      <g>
        <polygon class="cls-3" points="147.02 90.05 152.33 88.49 152.48 82.95 155.61 87.52 160.93 85.95 157.55 90.34 160.68 94.91 155.46 93.05 152.08 97.45 152.24 91.91 147.02 90.05"/>
        <polygon class="cls-3" points="150.67 56.83 158.36 58.69 162.51 51.95 163.12 59.84 170.81 61.69 163.5 64.71 164.11 72.6 158.98 66.58 151.66 69.6 155.8 62.86 150.67 56.83"/>
        <polygon class="cls-3" points="176.93 24.59 185.12 32.38 195.06 27 190.19 37.2 198.38 44.99 187.17 43.5 182.29 53.7 180.24 42.58 169.04 41.09 178.98 35.71 176.93 24.59"/>
        <polygon class="cls-3" points="226.07 0 230.64 15.49 246.78 15.93 233.46 25.07 238.03 40.56 225.23 30.71 211.91 39.84 217.32 24.62 204.51 14.78 220.66 15.22 226.07 0"/>
      </g>
    </g>
    <g>
      <g>
        <path class="cls-2" d="m40.99,135.57v1.44c-.16,12.84-6.38,19.85-20.33,19.85-14.75,0-20.65-7.73-20.65-21.77v-18.98c0-14.19,5.98-21.93,20.65-21.93,13.64,0,20.25,6.94,20.25,19.86v.88h-11.8v-1.12c0-6.3-2.87-9.25-8.45-9.25-7.26,0-9.09,4.15-9.09,11.96v18.1c0,7.82,1.67,11.88,9.09,11.88,5.9,0,8.37-2.79,8.61-9.33v-1.59h11.72Z"/>
        <path class="cls-2" d="m81.66,125.85v12.2c0,13.24-5.74,18.82-18.18,18.82s-18.18-5.58-18.18-18.82v-12.2c0-13.16,5.74-18.82,18.18-18.82s18.18,5.66,18.18,18.82Zm-25.6,12.28c0,7.18,1.91,9.33,7.42,9.33s7.42-2.15,7.42-9.33v-12.36c0-7.18-1.91-9.25-7.42-9.25s-7.42,2.07-7.42,9.25v12.36Z"/>
        <path class="cls-2" d="m104.87,156.39c-13.87,1.44-17.22-4.15-17.22-17.54v-44.5h10.69v44.97c0,6.54,1.67,7.73,6.54,7.5v9.57Z"/>
        <path class="cls-2" d="m128.79,156.39c-13.87,1.44-17.22-4.15-17.22-17.54v-44.5h10.69v44.97c0,6.54,1.67,7.73,6.54,7.5v9.57Z"/>
        <path class="cls-2" d="m169.38,141.56c-.32,9.97-5.1,15.31-17.38,15.31s-18.26-5.58-18.26-18.82v-12.6c0-11.88,5.9-18.42,18.18-18.42s17.86,5.66,17.86,18.26v9.89h-25.52v3.99c0,5.9,2.15,8.85,7.66,8.85s7.26-2.31,7.5-6.46h9.97Zm-25.12-16.03v1.43h15.31v-1.75c0-6.3-2.07-9.25-7.58-9.25s-7.73,2.71-7.73,9.57Z"/>
        <path class="cls-2" d="m200,154.15v-3.19c-2.47,2.15-6.14,3.27-10.21,3.27-10.29,0-15.39-6.54-15.39-18.82v-10.13c0-12.68,7.02-18.26,15.71-18.26,4.62,0,7.81,1.28,9.97,3.35l.32-2.39h10.29v45.21c0,13.95-6.86,18.9-18.26,18.9-12.44,0-16.83-5.5-17.06-14.51h10.29c.24,3.67,1.99,5.82,7.1,5.82s7.26-2.47,7.26-9.25Zm0-29.19c0-6.3-3.11-8.45-7.42-8.45-4.62,0-7.42,2.39-7.42,9.25v9.81c0,6.46,2.15,9.25,7.34,9.25,4.78,0,7.5-2.39,7.5-7.97v-11.88Z"/>
        <path class="cls-2" d="m252.48,141.56c-.32,9.97-5.1,15.31-17.38,15.31s-18.26-5.58-18.26-18.82v-12.6c0-11.88,5.9-18.42,18.18-18.42s17.86,5.66,17.86,18.26v9.89h-25.52v3.99c0,5.9,2.15,8.85,7.66,8.85s7.26-2.31,7.5-6.46h9.97Zm-25.12-16.03v1.43h15.31v-1.75c0-6.3-2.07-9.25-7.58-9.25s-7.73,2.71-7.73,9.57Z"/>
      </g>
      <g>
        <path class="cls-1" d="m258.86,95.15h17.7c15.71,0,22.01,7.42,22.01,22.41v16.27c0,14.67-6.38,22.09-22.01,22.09h-17.7v-60.76Zm10.84,9.73v41.31h6.94c7.89,0,10.37-3.59,10.37-11.64v-17.78c0-8.37-2.47-11.88-10.37-11.88h-6.94Z"/>
        <path class="cls-1" d="m339.96,141.56c-.32,9.97-5.1,15.31-17.38,15.31s-18.26-5.58-18.26-18.82v-12.6c0-11.88,5.9-18.42,18.18-18.42s17.86,5.66,17.86,18.26v9.89h-25.52v3.99c0,5.9,2.15,8.85,7.66,8.85s7.26-2.31,7.5-6.46h9.97Zm-25.12-16.03v1.43h15.31v-1.75c0-6.3-2.07-9.25-7.58-9.25s-7.73,2.71-7.73,9.57Z"/>
        <path class="cls-1" d="m369.15,129.83l17.78,26.08h-13.24l-13.24-20.81h-3.75v20.81h-10.69v-61.56h10.77v31.34h3.51l12.12-17.7h12.76l-16.03,21.85Z"/>
        <path class="cls-1" d="m400.81,110.38c2.47-2.23,6.06-3.35,10.61-3.35,10.37,0,14.59,5.66,14.59,17.3v31.58h-10.77v-30.46c0-6.3-1.75-8.93-7.1-8.93-4.55,0-7.34,2.47-7.34,8.05v31.34h-10.77v-61.56h10.77v16.03Z"/>
        <path class="cls-1" d="m468.03,125.85v12.2c0,13.24-5.74,18.82-18.18,18.82s-18.18-5.58-18.18-18.82v-12.2c0-13.16,5.74-18.82,18.18-18.82s18.18,5.66,18.18,18.82Zm-25.6,12.28c0,7.18,1.91,9.33,7.42,9.33s7.42-2.15,7.42-9.33v-12.36c0-7.18-1.91-9.25-7.42-9.25s-7.42,2.07-7.42,9.25v12.36Z"/>
      </g>
    </g>
  </g>
  <g>
    <polygon class="cls-2" points="322.73 61.7 321.09 61.7 321.09 53.74 322.73 53.97 322.73 61.7"/>
    <rect class="cls-2" x="320.27" y="59.76" width="3.28" height="5.25"/>
  </g>
</svg>