
<svg width="32" height="32" viewBox="0 0 32 32" fill="none" xmlns="http://www.w3.org/2000/svg">
<rect width="32" height="32" rx="8" fill="#F5F6FF"/>
<mask id="mask0_2107_13305" style="mask-type:alpha" maskUnits="userSpaceOnUse" x="8" y="8" width="16" height="16">
<path fill-rule="evenodd" clip-rule="evenodd" d="M15.8684 11.0137L15.8684 11.0137L15.8684 11.0137ZM16 11.0787L21.1759 13.6667L21.0481 13.7306C21.0397 13.7346 21.0314 13.7388 21.0232 13.7431L19.3333 14.588L16.2981 13.0704C15.9688 12.9058 15.5683 13.0392 15.4037 13.3686C15.239 13.6979 15.3725 14.0983 15.7018 14.263L17.8426 15.3334L16 16.2547L10.9768 13.7431C10.9686 13.7388 10.9603 13.7346 10.9519 13.7306L10.824 13.6667L16 11.0787ZM9.99996 14.7454L9.03515 14.263C8.80929 14.1501 8.66663 13.9192 8.66663 13.6667C8.66663 13.4142 8.80929 13.1834 9.03515 13.0704L15.4633 9.85635C15.4682 9.85388 15.4739 9.85097 15.4804 9.8477C15.5425 9.81596 15.6713 9.75027 15.8156 9.7232C15.9374 9.70034 16.0625 9.70034 16.1844 9.7232C16.3287 9.75027 16.4574 9.81596 16.5196 9.8477C16.526 9.85097 16.5317 9.85388 16.5366 9.85635L22.9648 13.0704C23.1906 13.1834 23.3333 13.4142 23.3333 13.6667C23.3333 13.9192 23.1906 14.1501 22.9648 14.263L22 14.7454V18.8711C22 18.8881 22 18.9056 22.0001 18.9235C22.0008 19.1139 22.0018 19.3532 21.9226 19.5754C21.8542 19.7673 21.7428 19.941 21.5968 20.0831C21.4278 20.2476 21.2099 20.3465 21.0365 20.4251C21.0202 20.4325 21.0043 20.4398 20.9888 20.4468L16.7222 22.4024C16.7111 22.4075 16.6997 22.4127 16.688 22.4181C16.5615 22.4766 16.4022 22.5501 16.228 22.5804C16.0771 22.6066 15.9228 22.6066 15.7719 22.5804C15.5977 22.5501 15.4384 22.4766 15.3119 22.4181C15.3002 22.4127 15.2889 22.4075 15.2778 22.4024L11.0111 20.4468L11.2889 19.8408L11.0111 20.4468C10.9957 20.4398 10.9797 20.4325 10.9634 20.4251C10.79 20.3465 10.5721 20.2476 10.4031 20.0831C10.2572 19.941 10.1457 19.7673 10.0773 19.5754C9.99814 19.3532 9.99908 19.1139 9.99982 18.9235C9.99989 18.9056 9.99996 18.8881 9.99996 18.8711V14.7454ZM11.3333 15.4121V18.8711C11.3333 19.0034 11.3336 19.0717 11.3368 19.121C11.3369 19.1226 11.337 19.124 11.3371 19.1254C11.3383 19.126 11.3395 19.1267 11.3409 19.1275C11.3845 19.1509 11.4464 19.1796 11.5666 19.2347L15.8333 21.1903C15.9208 21.2304 15.9648 21.2504 15.9974 21.2634C15.9983 21.2638 15.9991 21.2641 16 21.2644C16.0008 21.2641 16.0016 21.2638 16.0025 21.2634C16.0351 21.2504 16.0791 21.2304 16.1666 21.1903L20.4333 19.2347C20.5535 19.1796 20.6155 19.1509 20.659 19.1275C20.6604 19.1267 20.6616 19.126 20.6629 19.1254C20.663 19.124 20.6631 19.1226 20.6632 19.121C20.6663 19.0717 20.6666 19.0034 20.6666 18.8711V15.4121L20 15.7454V17.6667C20 18.0349 19.7015 18.3334 19.3333 18.3334C18.9651 18.3334 18.6666 18.0349 18.6666 17.6667V16.4121L16.5366 17.4771C16.5317 17.4795 16.526 17.4824 16.5196 17.4857C16.4574 17.5175 16.3287 17.5831 16.1844 17.6102C16.0625 17.6331 15.9374 17.6331 15.8156 17.6102C15.6713 17.5831 15.5425 17.5175 15.4803 17.4857C15.4739 17.4824 15.4682 17.4795 15.4633 17.4771L11.3333 15.4121ZM15.8684 16.3197C15.8682 16.3198 15.8682 16.3198 15.8684 16.3197L15.8684 16.3197ZM16.1315 16.3197C16.1317 16.3198 16.1317 16.3198 16.1315 16.3197L16.1315 16.3197ZM16.1315 11.0137L16.1315 11.0137L16.1315 11.0137Z" fill="black"/>
</mask>
<g mask="url(#mask0_2107_13305)">
<rect x="8" y="8" width="16" height="16" fill="#3F53D9"/>
</g>
</svg>
