<svg width="32" height="32" viewBox="0 0 32 32" fill="none" xmlns="http://www.w3.org/2000/svg">
<rect width="32" height="32" rx="8" fill="#F5F6FF"/>
<mask id="mask0_2107_13287" style="mask-type:alpha" maskUnits="userSpaceOnUse" x="8" y="8" width="16" height="16">
<path fill-rule="evenodd" clip-rule="evenodd" d="M15.7785 8.75118C15.9243 8.71803 16.0758 8.71803 16.2216 8.75118C16.3948 8.79054 16.5442 8.88594 16.6161 8.93194C16.6236 8.93672 16.6303 8.94097 16.636 8.94457L21.6867 12.1012C21.9389 12.2589 22.0562 12.5645 21.9742 12.8504C21.8922 13.1362 21.6308 13.3332 21.3334 13.3332H10.6667C10.3693 13.3332 10.1079 13.1362 10.0259 12.8504C9.94389 12.5645 10.0612 12.2589 10.3134 12.1012L15.364 8.94457C15.3698 8.94097 15.3764 8.93672 15.3839 8.93194C15.4559 8.88594 15.6052 8.79054 15.7785 8.75118ZM16 10.1194L12.9912 11.9999H19.0088L16 10.1194ZM12 13.9999C12.3682 13.9999 12.6667 14.2984 12.6667 14.6666V19.9999C12.6667 20.3681 12.3682 20.6666 12 20.6666C11.6319 20.6666 11.3334 20.3681 11.3334 19.9999V14.6666C11.3334 14.2984 11.6319 13.9999 12 13.9999ZM14.6667 13.9999C15.0349 13.9999 15.3334 14.2984 15.3334 14.6666V19.9999C15.3334 20.3681 15.0349 20.6666 14.6667 20.6666C14.2985 20.6666 14 20.3681 14 19.9999V14.6666C14 14.2984 14.2985 13.9999 14.6667 13.9999ZM17.3334 13.9999C17.7016 13.9999 18 14.2984 18 14.6666V19.9999C18 20.3681 17.7016 20.6666 17.3334 20.6666C16.9652 20.6666 16.6667 20.3681 16.6667 19.9999V14.6666C16.6667 14.2984 16.9652 13.9999 17.3334 13.9999ZM20 13.9999C20.3682 13.9999 20.6667 14.2984 20.6667 14.6666V19.9999C20.6667 20.3681 20.3682 20.6666 20 20.6666C19.6319 20.6666 19.3334 20.3681 19.3334 19.9999V14.6666C19.3334 14.2984 19.6319 13.9999 20 13.9999ZM9.33337 21.9999C9.33337 21.6317 9.63185 21.3332 10 21.3332H22C22.3682 21.3332 22.6667 21.6317 22.6667 21.9999C22.6667 22.3681 22.3682 22.6666 22 22.6666H10C9.63185 22.6666 9.33337 22.3681 9.33337 21.9999Z" fill="black"/>
</mask>
<g mask="url(#mask0_2107_13287)">
<rect x="8" y="8" width="16" height="16" fill="#3F53D9"/>
</g>
</svg>