
<svg width="32" height="32" viewBox="0 0 32 32" fill="none" xmlns="http://www.w3.org/2000/svg">
<rect width="32" height="32" rx="8" fill="#F5F6FF"/>
<mask id="mask0_2107_13296" style="mask-type:alpha" maskUnits="userSpaceOnUse" x="8" y="8" width="16" height="16">
<path fill-rule="evenodd" clip-rule="evenodd" d="M13.8391 8.66675H18.1609C18.6975 8.66674 19.1404 8.66673 19.5012 8.69621C19.8759 8.72683 20.2204 8.79254 20.544 8.9574C21.0457 9.21306 21.4537 9.62101 21.7094 10.1228C21.8742 10.4463 21.9399 10.7908 21.9705 11.1655C22 11.5263 22 11.9692 22 12.5059V19.4943C22 20.0309 22 20.4738 21.9705 20.8346C21.9399 21.2094 21.8742 21.5538 21.7094 21.8774C21.4537 22.3792 21.0457 22.7871 20.544 23.0428C20.2204 23.2076 19.8759 23.2733 19.5012 23.304C19.1404 23.3334 18.6975 23.3334 18.1609 23.3334H13.8391C13.3025 23.3334 12.8596 23.3334 12.4988 23.304C12.1241 23.2733 11.7796 23.2076 11.456 23.0428C10.9543 22.7871 10.5463 22.3792 10.2906 21.8774C10.1258 21.5538 10.0601 21.2094 10.0295 20.8346C9.99998 20.4738 9.99999 20.0309 10 19.4943V12.5059C9.99999 11.9692 9.99998 11.5263 10.0295 11.1655C10.0601 10.7908 10.1258 10.4463 10.2906 10.1228C10.5463 9.62101 10.9543 9.21306 11.456 8.9574C11.7796 8.79254 12.1241 8.72683 12.4988 8.69621C12.8596 8.66673 13.3025 8.66674 13.8391 8.66675ZM12.6074 10.0251C12.3151 10.049 12.1656 10.0923 12.0613 10.1454C11.8105 10.2732 11.6065 10.4772 11.4787 10.7281C11.4255 10.8324 11.3822 10.9818 11.3584 11.2741C11.3339 11.5742 11.3333 11.9624 11.3333 12.5334V19.4667C11.3333 20.0378 11.3339 20.426 11.3584 20.7261C11.3822 21.0183 11.4255 21.1678 11.4787 21.2721C11.6065 21.523 11.8105 21.7269 12.0613 21.8548C12.1656 21.9079 12.3151 21.9512 12.6074 21.975C12.9074 21.9996 13.2956 22.0001 13.8667 22.0001H18.1333C18.7044 22.0001 19.0926 21.9996 19.3926 21.975C19.6849 21.9512 19.8344 21.9079 19.9387 21.8548C20.1895 21.7269 20.3935 21.523 20.5213 21.2721C20.5745 21.1678 20.6178 21.0183 20.6416 20.7261C20.6661 20.426 20.6667 20.0378 20.6667 19.4667V12.5334C20.6667 11.9624 20.6661 11.5742 20.6416 11.2741C20.6178 10.9818 20.5745 10.8324 20.5213 10.7281C20.3935 10.4772 20.1895 10.2732 19.9387 10.1454C19.8344 10.0923 19.6849 10.049 19.3926 10.0251C19.0926 10.0006 18.7044 10.0001 18.1333 10.0001H13.8667C13.2956 10.0001 12.9074 10.0006 12.6074 10.0251ZM12.6667 12.6667C12.6667 12.2986 12.9651 12.0001 13.3333 12.0001H18.6667C19.0349 12.0001 19.3333 12.2986 19.3333 12.6667C19.3333 13.0349 19.0349 13.3334 18.6667 13.3334H13.3333C12.9651 13.3334 12.6667 13.0349 12.6667 12.6667ZM12.6667 15.3334C12.6667 14.9652 12.9651 14.6667 13.3333 14.6667H17.3333C17.7015 14.6667 18 14.9652 18 15.3334C18 15.7016 17.7015 16.0001 17.3333 16.0001H13.3333C12.9651 16.0001 12.6667 15.7016 12.6667 15.3334ZM12.6667 18.0001C12.6667 17.6319 12.9651 17.3334 13.3333 17.3334H14.6667C15.0349 17.3334 15.3333 17.6319 15.3333 18.0001C15.3333 18.3683 15.0349 18.6667 14.6667 18.6667H13.3333C12.9651 18.6667 12.6667 18.3683 12.6667 18.0001Z" fill="black"/>
</mask>
<g mask="url(#mask0_2107_13296)">
<rect x="8" y="8" width="16" height="16" fill="#3F53D9"/>
</g>
</svg>
