
<svg width="32" height="32" viewBox="0 0 32 32" fill="none" xmlns="http://www.w3.org/2000/svg">
<rect width="32" height="32" rx="8" fill="#F5F6FF"/>
<mask id="mask0_2107_13242" style="mask-type:alpha" maskUnits="userSpaceOnUse" x="8" y="8" width="16" height="16">
<path fill-rule="evenodd" clip-rule="evenodd" d="M11.4409 9.33325L11.7618 9.33325C12.4844 9.33325 13.0671 9.33324 13.539 9.3718C14.0249 9.4115 14.4517 9.49537 14.8466 9.69656C15.3023 9.92876 15.6961 10.2614 16 10.6666C16.3038 10.2614 16.6976 9.92876 17.1533 9.69656C17.5482 9.49537 17.975 9.4115 18.4609 9.3718C18.9328 9.33324 19.5156 9.33325 20.2381 9.33325L20.559 9.33325C20.9104 9.33324 21.2136 9.33323 21.4633 9.35363C21.7269 9.37517 21.989 9.42271 22.2413 9.55124C22.6176 9.74299 22.9236 10.0489 23.1153 10.4253C23.2438 10.6775 23.2914 10.9397 23.3129 11.2032C23.3333 11.4529 23.3333 11.7561 23.3333 12.1075V17.8923C23.3333 18.2437 23.3333 18.5469 23.3129 18.7966C23.2914 19.0602 23.2438 19.3223 23.1153 19.5746C22.9236 19.9509 22.6176 20.2569 22.2413 20.4486C21.989 20.5771 21.7269 20.6247 21.4633 20.6462C21.2136 20.6666 20.9104 20.6666 20.559 20.6666H19.6167C18.7404 20.6666 18.4411 20.6734 18.1793 20.7529C17.9277 20.8293 17.6937 20.9545 17.4905 21.1215C17.2791 21.2952 17.1075 21.5405 16.6214 22.2697L16.5547 22.3697C16.431 22.5552 16.2229 22.6666 16 22.6666C15.7771 22.6666 15.5689 22.5552 15.4453 22.3697L15.3786 22.2697C14.8924 21.5405 14.7208 21.2952 14.5094 21.1215C14.3063 20.9545 14.0722 20.8293 13.8206 20.7529C13.5588 20.6734 13.2595 20.6666 12.3832 20.6666H11.4409C11.0895 20.6666 10.7863 20.6666 10.5366 20.6462C10.273 20.6247 10.0109 20.5771 9.75865 20.4486C9.38232 20.2569 9.07636 19.9509 8.88461 19.5746C8.75608 19.3223 8.70854 19.0602 8.68701 18.7966C8.6666 18.5469 8.66661 18.2437 8.66663 17.8923V12.1076C8.66661 11.7561 8.6666 11.4529 8.68701 11.2032C8.70854 10.9397 8.75608 10.6775 8.88461 10.4253C9.07636 10.0489 9.38232 9.74299 9.75865 9.55124C10.0109 9.42271 10.273 9.37517 10.5366 9.35363C10.7863 9.33323 11.0895 9.33324 11.4409 9.33325ZM15.3333 14.2666C15.3333 13.5088 15.3328 12.9806 15.2992 12.5694C15.2662 12.166 15.2048 11.9342 15.1153 11.7586C14.9236 11.3823 14.6176 11.0763 14.2413 10.8846C14.0657 10.7951 13.8339 10.7337 13.4305 10.7007C13.0192 10.6671 12.491 10.6666 11.7333 10.6666H11.4666C11.0823 10.6666 10.8341 10.6671 10.6452 10.6825C10.4641 10.6973 10.3969 10.7225 10.364 10.7392C10.2385 10.8032 10.1365 10.9052 10.0726 11.0306C10.0558 11.0636 10.0307 11.1307 10.0159 11.3118C10.0005 11.5007 9.99996 11.7489 9.99996 12.1333V17.8666C9.99996 18.251 10.0005 18.4991 10.0159 18.688C10.0307 18.8691 10.0558 18.9363 10.0726 18.9692C10.1365 19.0947 10.2385 19.1967 10.364 19.2606C10.3969 19.2774 10.4641 19.3025 10.6452 19.3173C10.8341 19.3327 11.0823 19.3333 11.4666 19.3333H12.3832C12.4164 19.3333 12.4492 19.3332 12.4816 19.3332C13.2213 19.333 13.7329 19.3328 14.2081 19.4771C14.618 19.6016 15.0001 19.8039 15.3333 20.0729V14.2666ZM16.6666 20.0729C16.9999 19.8039 17.3819 19.6016 17.7918 19.4771C18.267 19.3328 18.7786 19.333 19.5184 19.3332C19.5507 19.3332 19.5835 19.3333 19.6167 19.3333H20.5333C20.9177 19.3333 21.1658 19.3327 21.3547 19.3173C21.5358 19.3025 21.603 19.2774 21.636 19.2606C21.7614 19.1967 21.8634 19.0947 21.9273 18.9692C21.9441 18.9363 21.9692 18.8691 21.984 18.688C21.9994 18.4991 22 18.251 22 17.8666V12.1333C22 11.7489 21.9994 11.5007 21.984 11.3118C21.9692 11.1307 21.9441 11.0636 21.9273 11.0306C21.8634 10.9052 21.7614 10.8032 21.636 10.7392C21.603 10.7225 21.5358 10.6973 21.3547 10.6825C21.1658 10.6671 20.9177 10.6666 20.5333 10.6666H20.2666C19.5089 10.6666 18.9807 10.6671 18.5695 10.7007C18.166 10.7337 17.9342 10.7951 17.7586 10.8846C17.3823 11.0763 17.0764 11.3823 16.8846 11.7586C16.7952 11.9342 16.7337 12.166 16.7007 12.5694C16.6671 12.9806 16.6666 13.5088 16.6666 14.2666V20.0729Z" fill="black"/>
</mask>
<g mask="url(#mask0_2107_13242)">
<rect x="8" y="8" width="16" height="16" fill="#3F53D9"/>
</g>
</svg>
