
<svg width="32" height="32" viewBox="0 0 32 32" fill="none" xmlns="http://www.w3.org/2000/svg">
<rect width="32" height="32" rx="8" fill="#F5F6FF"/>
<mask id="mask0_2107_13332" style="mask-type:alpha" maskUnits="userSpaceOnUse" x="8" y="8" width="16" height="16">
<path fill-rule="evenodd" clip-rule="evenodd" d="M11.0454 9.33325C11.0525 9.33325 11.0596 9.33326 11.0667 9.33326H13.6C13.6071 9.33326 13.6142 9.33325 13.6213 9.33325C13.7896 9.33323 13.9534 9.33321 14.0922 9.34455C14.2446 9.357 14.4244 9.38638 14.6054 9.47858C14.8562 9.60641 15.0602 9.81039 15.1881 10.0613C15.2803 10.2422 15.3096 10.422 15.3221 10.5744C15.3334 10.7132 15.3334 10.8771 15.3334 11.0453V13.6212C15.3334 13.7894 15.3334 13.9533 15.3221 14.0921C15.3096 14.2445 15.2803 14.4243 15.1881 14.6052C15.0602 14.8561 14.8562 15.0601 14.6054 15.1879C14.4244 15.2801 14.2446 15.3095 14.0922 15.322C13.9534 15.3333 13.7896 15.3333 13.6213 15.3333H11.0455C10.8772 15.3333 10.7133 15.3333 10.5746 15.322C10.4222 15.3095 10.2423 15.2801 10.0614 15.1879C9.81051 15.0601 9.60653 14.8561 9.4787 14.6052C9.3865 14.4243 9.35713 14.2445 9.34467 14.0921C9.33334 13.9533 9.33336 13.7894 9.33338 13.6212C9.33338 13.6141 9.33338 13.607 9.33338 13.5999V11.0666C9.33338 11.0595 9.33338 11.0524 9.33338 11.0453C9.33336 10.8771 9.33334 10.7132 9.34467 10.5744C9.35713 10.422 9.3865 10.2422 9.4787 10.0613C9.60653 9.81039 9.81051 9.60641 10.0614 9.47858C10.2423 9.38638 10.4222 9.357 10.5746 9.34455C10.7133 9.33321 10.8772 9.33323 11.0454 9.33325ZM10.6743 10.6742C10.6741 10.677 10.6738 10.6799 10.6736 10.683C10.6672 10.7607 10.6667 10.8689 10.6667 11.0666V13.5999C10.6667 13.7976 10.6672 13.9058 10.6736 13.9835C10.6738 13.9866 10.6741 13.9895 10.6743 13.9923C10.6771 13.9925 10.68 13.9928 10.6831 13.9931C10.7609 13.9994 10.869 13.9999 11.0667 13.9999H13.6C13.7977 13.9999 13.9059 13.9994 13.9836 13.9931C13.9867 13.9928 13.9896 13.9925 13.9924 13.9923C13.9927 13.9895 13.9929 13.9866 13.9932 13.9835C13.9995 13.9058 14 13.7976 14 13.5999V11.0666C14 10.8689 13.9995 10.7607 13.9932 10.683C13.9929 10.6799 13.9927 10.677 13.9924 10.6742C13.9896 10.674 13.9867 10.6737 13.9836 10.6735C13.9059 10.6671 13.7977 10.6666 13.6 10.6666H11.0667C10.869 10.6666 10.7609 10.6671 10.6831 10.6735C10.68 10.6737 10.6771 10.674 10.6743 10.6742ZM18.3788 9.33325H20.9546C21.1229 9.33323 21.2868 9.33321 21.4255 9.34455C21.5779 9.357 21.7577 9.38638 21.9387 9.47858C22.1896 9.60641 22.3936 9.81039 22.5214 10.0613C22.6136 10.2422 22.643 10.422 22.6554 10.5744C22.6668 10.7132 22.6667 10.8771 22.6667 11.0453V13.6212C22.6667 13.7894 22.6668 13.9533 22.6554 14.0921C22.643 14.2445 22.6136 14.4243 22.5214 14.6052C22.3936 14.8561 22.1896 15.0601 21.9387 15.1879C21.7577 15.2801 21.5779 15.3095 21.4255 15.322C21.2868 15.3333 21.1229 15.3333 20.9546 15.3333H18.3788C18.2105 15.3333 18.0467 15.3333 17.9079 15.322C17.7555 15.3095 17.5757 15.2801 17.3947 15.1879C17.1438 15.0601 16.9399 14.8561 16.812 14.6052C16.7198 14.4243 16.6905 14.2445 16.678 14.0921C16.6667 13.9533 16.6667 13.7894 16.6667 13.6212V11.0453C16.6667 10.8771 16.6667 10.7132 16.678 10.5744C16.6905 10.422 16.7198 10.2422 16.812 10.0613C16.9399 9.81039 17.1438 9.60641 17.3947 9.47858C17.5757 9.38638 17.7555 9.357 17.9079 9.34455C18.0467 9.33321 18.2105 9.33323 18.3788 9.33325ZM18.0077 10.6742C18.0074 10.677 18.0072 10.6799 18.0069 10.683C18.0006 10.7607 18 10.8689 18 11.0666V13.5999C18 13.7976 18.0006 13.9058 18.0069 13.9835C18.0072 13.9866 18.0074 13.9895 18.0077 13.9923C18.0104 13.9925 18.0134 13.9928 18.0165 13.9931C18.0942 13.9994 18.2024 13.9999 18.4 13.9999H20.9334C21.1311 13.9999 21.2392 13.9994 21.317 13.9931C21.32 13.9928 21.323 13.9925 21.3257 13.9923C21.326 13.9895 21.3263 13.9866 21.3265 13.9835C21.3329 13.9058 21.3334 13.7976 21.3334 13.5999V11.0666C21.3334 10.8689 21.3329 10.7607 21.3265 10.683C21.3263 10.6799 21.326 10.677 21.3257 10.6742C21.323 10.674 21.32 10.6737 21.317 10.6735C21.2392 10.6671 21.1311 10.6666 20.9334 10.6666H18.4C18.2024 10.6666 18.0942 10.6671 18.0165 10.6735C18.0134 10.6737 18.0104 10.674 18.0077 10.6742ZM11.0455 16.6666H13.6213C13.7896 16.6666 13.9534 16.6665 14.0922 16.6779C14.2446 16.6903 14.4244 16.7197 14.6054 16.8119C14.8562 16.9397 15.0602 17.1437 15.1881 17.3946C15.2803 17.5755 15.3096 17.7554 15.3221 17.9078C15.3334 18.0465 15.3334 18.2104 15.3334 18.3787V20.9545C15.3334 21.1228 15.3334 21.2866 15.3221 21.4254C15.3096 21.5778 15.2803 21.7576 15.1881 21.9386C15.0602 22.1895 14.8562 22.3934 14.6054 22.5213C14.4244 22.6135 14.2446 22.6428 14.0922 22.6553C13.9534 22.6666 13.7896 22.6666 13.6213 22.6666H11.0454C10.8772 22.6666 10.7133 22.6666 10.5746 22.6553C10.4222 22.6428 10.2423 22.6135 10.0614 22.5213C9.81051 22.3934 9.60653 22.1895 9.4787 21.9386C9.3865 21.7576 9.35713 21.5778 9.34467 21.4254C9.33334 21.2866 9.33336 21.1228 9.33338 20.9545V18.3787C9.33336 18.2104 9.33334 18.0465 9.34467 17.9078C9.35713 17.7554 9.3865 17.5755 9.4787 17.3946C9.60653 17.1437 9.81051 16.9397 10.0614 16.8119C10.2423 16.7197 10.4222 16.6903 10.5746 16.6779C10.7133 16.6665 10.8772 16.6666 11.0455 16.6666ZM10.6743 18.0076C10.6741 18.0103 10.6738 18.0132 10.6736 18.0163C10.6672 18.0941 10.6667 18.2022 10.6667 18.3999V20.9333C10.6667 21.1309 10.6672 21.2391 10.6736 21.3168C10.6738 21.3199 10.6741 21.3229 10.6743 21.3256C10.6771 21.3259 10.68 21.3261 10.6831 21.3264C10.7609 21.3327 10.869 21.3333 11.0667 21.3333H13.6C13.7977 21.3333 13.9059 21.3327 13.9836 21.3264C13.9867 21.3261 13.9896 21.3259 13.9924 21.3256C13.9927 21.3229 13.9929 21.3199 13.9932 21.3168C13.9995 21.2391 14 21.1309 14 20.9333V18.3999C14 18.2022 13.9995 18.0941 13.9932 18.0163C13.9929 18.0132 13.9927 18.0103 13.9924 18.0076C13.9896 18.0073 13.9867 18.007 13.9836 18.0068C13.9059 18.0004 13.7977 17.9999 13.6 17.9999H11.0667C10.869 17.9999 10.7609 18.0004 10.6831 18.0068C10.68 18.007 10.6771 18.0073 10.6743 18.0076ZM18.3788 16.6666H20.9546C21.1229 16.6666 21.2868 16.6665 21.4255 16.6779C21.5779 16.6903 21.7577 16.7197 21.9387 16.8119C22.1896 16.9397 22.3936 17.1437 22.5214 17.3946C22.6136 17.5755 22.643 17.7554 22.6554 17.9078C22.6668 18.0465 22.6667 18.2104 22.6667 18.3786V20.9545C22.6667 21.1228 22.6668 21.2866 22.6554 21.4254C22.643 21.5778 22.6136 21.7576 22.5214 21.9386C22.3936 22.1895 22.1896 22.3934 21.9387 22.5213C21.7577 22.6135 21.5779 22.6428 21.4255 22.6553C21.2868 22.6666 21.1229 22.6666 20.9547 22.6666H18.3788C18.2105 22.6666 18.0467 22.6666 17.9079 22.6553C17.7555 22.6428 17.5757 22.6135 17.3947 22.5213C17.1438 22.3934 16.9399 22.1895 16.812 21.9386C16.7198 21.7576 16.6905 21.5778 16.678 21.4254C16.6667 21.2866 16.6667 21.1228 16.6667 20.9545V18.3787C16.6667 18.2104 16.6667 18.0465 16.678 17.9078C16.6905 17.7554 16.7198 17.5755 16.812 17.3946C16.9399 17.1437 17.1438 16.9397 17.3947 16.8119C17.5757 16.7197 17.7555 16.6903 17.9079 16.6779C18.0467 16.6665 18.2105 16.6666 18.3788 16.6666ZM18.0077 18.0076C18.0074 18.0103 18.0072 18.0132 18.0069 18.0163C18.0006 18.0941 18 18.2022 18 18.3999V20.9333C18 21.1309 18.0006 21.2391 18.0069 21.3168C18.0072 21.3199 18.0074 21.3229 18.0077 21.3256C18.0104 21.3259 18.0134 21.3261 18.0165 21.3264C18.0942 21.3327 18.2024 21.3333 18.4 21.3333H20.9334C21.1311 21.3333 21.2392 21.3327 21.317 21.3264C21.32 21.3261 21.323 21.3259 21.3257 21.3256C21.326 21.3229 21.3263 21.3199 21.3265 21.3168C21.3329 21.2391 21.3334 21.1309 21.3334 20.9333V18.3999C21.3334 18.2022 21.3329 18.0941 21.3265 18.0163C21.3263 18.0133 21.326 18.0103 21.3257 18.0076C21.323 18.0073 21.32 18.007 21.317 18.0068C21.2392 18.0004 21.1311 17.9999 20.9334 17.9999H18.4C18.2024 17.9999 18.0942 18.0004 18.0165 18.0068C18.0134 18.007 18.0104 18.0073 18.0077 18.0076Z" fill="black"/>
</mask>
<g mask="url(#mask0_2107_13332)">
<rect x="8" y="8" width="16" height="16" fill="#3F53D9"/>
</g>
</svg>
