
<svg width="32" height="32" viewBox="0 0 32 32" fill="none" xmlns="http://www.w3.org/2000/svg">
<rect width="32" height="32" rx="8" fill="#F5F6FF"/>
<mask id="mask0_2107_13269" style="mask-type:alpha" maskUnits="userSpaceOnUse" x="8" y="8" width="16" height="16">
<g clip-path="url(#clip0_2107_13269)">
<path fill-rule="evenodd" clip-rule="evenodd" d="M10.0018 15.8542C10.0007 15.9027 10.0001 15.9513 10.0001 16.0001C10.0001 18.7355 11.8306 21.0434 14.3335 21.7656L14.3335 21.1233C14.3335 20.8846 14.4189 20.6538 14.5743 20.4726L15.0804 20.9065L15.0946 20.9186M15.0804 20.9065L14.5743 20.4726L15.969 18.8454L14.415 17.9574C14.2598 17.8687 14.1312 17.74 14.0426 17.5848L14.6216 17.2544L14.0426 17.5848L12.9074 15.5954L10.0018 15.8542M8.71266 15.1749C8.68233 15.4458 8.66675 15.7211 8.66675 16.0001C8.66675 19.6768 11.3726 22.7216 14.9015 23.2517C15.2599 23.3055 15.6267 23.3334 16.0001 23.3334C20.0502 23.3334 23.3334 20.0502 23.3334 16.0001C23.3334 14.8344 23.0609 13.7306 22.5758 12.7505C22.6342 12.5104 22.6667 12.2605 22.6667 12.0001C22.6667 10.1591 21.1744 8.66675 19.3334 8.66675C18.86 8.66675 18.4096 8.76546 18.0017 8.94342C17.3647 8.76307 16.6931 8.66675 16.0001 8.66675C12.2359 8.66675 9.13414 11.5028 8.71495 15.1547C8.71409 15.1614 8.71332 15.1681 8.71266 15.1749ZM10.1894 14.4988C10.8559 11.9116 13.2048 10.0001 16.0001 10.0001C16.2169 10.0001 16.4308 10.0116 16.6414 10.0339C16.2382 10.5851 16.0001 11.2648 16.0001 12.0001C16.0001 12.9478 16.4313 13.7572 16.9719 14.4591C17.4216 15.0431 17.9972 15.6135 18.5526 16.1639C18.6568 16.2672 18.7602 16.3697 18.862 16.4715C19.1224 16.7318 19.5445 16.7318 19.8048 16.4715C19.9066 16.3697 20.0101 16.2672 20.1142 16.1639C20.6697 15.6135 21.2452 15.0431 21.6949 14.4591C21.721 14.4253 21.7469 14.3911 21.7724 14.3567C21.9207 14.8786 22.0001 15.4298 22.0001 16.0001C22.0001 19.3138 19.3138 22.0001 16.0001 22.0001C15.8883 22.0001 15.7771 21.997 15.6668 21.991L15.6668 21.2467L17.2438 19.4069C17.6524 18.9302 17.5258 18.1993 16.9807 17.8878L15.1556 16.8449L13.9594 14.7488C13.7656 14.4091 13.3916 14.2136 13.0022 14.2483L10.1894 14.4988ZM19.3334 10.0001C18.2288 10.0001 17.3334 10.8955 17.3334 12.0001C17.3334 12.5251 17.5689 13.0491 18.0283 13.6456C18.3852 14.1091 18.8335 14.5632 19.3334 15.06C19.8333 14.5632 20.2816 14.1091 20.6386 13.6456C21.098 13.0491 21.3334 12.5251 21.3334 12.0001C21.3334 10.8955 20.438 10.0001 19.3334 10.0001ZM18.5001 11.8334C18.5001 11.3732 18.8732 11.0001 19.3334 11.0001C19.7937 11.0001 20.1667 11.3732 20.1667 11.8334C20.1667 12.2937 19.7937 12.6667 19.3334 12.6667C18.8732 12.6667 18.5001 12.2937 18.5001 11.8334Z" fill="black"/>
</g>
</mask>
<g mask="url(#mask0_2107_13269)">
<rect x="8" y="8" width="16" height="16" fill="#3F53D9"/>
</g>
<defs>
<clipPath id="clip0_2107_13269">
<rect width="16" height="16" fill="white" transform="translate(8 8)"/>
</clipPath>
</defs>
</svg>