
<svg width="32" height="32" viewBox="0 0 32 32" fill="none" xmlns="http://www.w3.org/2000/svg">
<rect width="32" height="32" rx="8" fill="#F5F6FF"/>
<mask id="mask0_2107_13323" style="mask-type:alpha" maskUnits="userSpaceOnUse" x="8" y="8" width="16" height="16">
<path fill-rule="evenodd" clip-rule="evenodd" d="M16.9321 8.72192C17.2036 8.83976 17.3649 9.12248 17.3282 9.41614L16.7552 14.0001L20.8852 14.0001C21.0458 14.0001 21.2086 14.0001 21.3415 14.0121C21.4673 14.0235 21.708 14.0536 21.9168 14.2223C22.1559 14.4155 22.2928 14.7079 22.2882 15.0152C22.2841 15.2836 22.1531 15.4879 22.0814 15.5918C22.0055 15.7016 21.9013 15.8266 21.7985 15.95L15.8455 23.0936C15.656 23.3209 15.3393 23.3962 15.0679 23.2783C14.7964 23.1605 14.6351 22.8778 14.6718 22.5841L15.2448 18.0001L11.1148 18.0001C10.9541 18.0002 10.7914 18.0002 10.6585 17.9881C10.5327 17.9768 10.292 17.9466 10.0831 17.7779C9.84409 17.5847 9.70715 17.2924 9.71178 16.985C9.71583 16.7166 9.84684 16.5124 9.91859 16.4085C9.99446 16.2986 10.0987 16.1736 10.2015 16.0502C10.2066 16.0441 10.2117 16.038 10.2168 16.0319L16.1545 8.90666C16.344 8.67931 16.6606 8.60407 16.9321 8.72192ZM11.4234 16.6668H16C16.1912 16.6668 16.3732 16.7489 16.4998 16.8923C16.6263 17.0356 16.6852 17.2264 16.6615 17.4161L16.2769 20.4931L20.5766 15.3335H16C15.8088 15.3335 15.6268 15.2513 15.5002 15.108C15.3737 14.9646 15.3148 14.7738 15.3385 14.5841L15.7231 11.5071L11.4234 16.6668Z" fill="black"/>
</mask>
<g mask="url(#mask0_2107_13323)">
<rect x="8" y="8" width="16" height="16" fill="#3F53D9"/>
</g>
</svg>
